<svg width="56" height="56" viewBox="0 0 56 56" fill="none" xmlns="http://www.w3.org/2000/svg">
<path opacity="0.3" d="M28 9.33333C17.6867 9.33333 9.33334 17.6867 9.33334 28C9.33334 38.3133 17.6867 46.6667 28 46.6667C38.3133 46.6667 46.6667 38.3133 46.6667 28C46.6667 17.6867 38.3133 9.33333 28 9.33333ZM30.3333 39.6667H25.6667V35H30.3333V39.6667ZM30.3333 30.3333H25.6667V16.3333H30.3333V30.3333Z" fill="#DC6262"/>
<path d="M27.9767 4.66667C15.0967 4.66667 4.66666 15.12 4.66666 28C4.66666 40.88 15.0967 51.3333 27.9767 51.3333C40.88 51.3333 51.3333 40.88 51.3333 28C51.3333 15.12 40.88 4.66667 27.9767 4.66667ZM28 46.6667C17.6867 46.6667 9.33332 38.3133 9.33332 28C9.33332 17.6867 17.6867 9.33334 28 9.33334C38.3133 9.33334 46.6667 17.6867 46.6667 28C46.6667 38.3133 38.3133 46.6667 28 46.6667ZM25.6667 35H30.3333V39.6667H25.6667V35ZM25.6667 16.3333H30.3333V30.3333H25.6667V16.3333Z" fill="#0F2224"/>
</svg>
